<?xml version="1.0" encoding="UTF-8"?>
<svg width="32px" height="32px" viewBox="0 0 32 32" version="1.1" xmlns="http://www.w3.org/2000/svg" xmlns:xlink="http://www.w3.org/1999/xlink">
    <!-- Generator: Sketch 56.2 (81672) - https://sketch.com -->
    <title>Reddiit</title>
    <desc>Created with Sketch.</desc>
    <g id="Reddiit" stroke="none" stroke-width="1" fill="none" fill-rule="evenodd" stroke-opacity="0">
        <g id="Reddit" transform="translate(4.000000, 4.000000)" fill="#999999" fill-rule="nonzero" stroke="#000000">
            <path d="M12.0888889,23.7333802 C7.37920534,23.7333802 3.13329911,20.8961853 1.33099085,16.5450011 C-0.471317397,12.1938169 0.524897468,7.18539582 3.85511111,3.85511111 C6.79691535,0.913306748 11.0846885,-0.235598676 15.1032679,0.841176403 C19.1218474,1.91795148 22.2607152,5.05681931 23.3374903,9.07539873 C24.4142653,13.0939781 23.2653599,17.3817513 20.3235556,20.3235556 C18.1442128,22.5143026 15.179007,23.7421231 12.0888889,23.7333802 Z M6.04444444,10.3911111 C5.34571779,10.3897774 4.71737271,10.8162265 4.46058185,11.4660566 C4.20379098,12.1158867 4.37088652,12.8566669 4.88177778,13.3333333 C5.01577948,13.4604783 5.17023537,13.5641501 5.33866667,13.64 C5.32752606,13.8107815 5.32752606,13.9821074 5.33866667,14.1528889 C5.33866667,16.7608889 8.384,18.8826667 12.1271111,18.8826667 C15.8702222,18.8826667 18.9146667,16.7608889 18.9146667,14.1528889 C18.9266007,13.9821342 18.9266007,13.8107547 18.9146667,13.64 C19.6212,13.2947628 19.9934965,12.5054237 19.8105114,11.7406398 C19.6275262,10.9758558 18.9382795,10.4405056 18.152,10.4524444 L18.0924444,10.4524444 C17.6757086,10.4675678 17.2790406,10.6352186 16.9777778,10.9235556 C15.6535741,10.021778 14.0959737,9.52398824 12.4942222,9.49066667 L13.2497778,5.85866667 L15.7386667,6.38222222 C15.8009883,6.97350419 16.299665,7.42231321 16.8942222,7.42222222 C16.9366897,7.42214177 16.9791219,7.41976795 17.0213333,7.41511111 C17.6346021,7.34709043 18.088343,6.81249842 18.0557889,6.19632832 C18.0232347,5.58015823 17.5156887,5.09635397 16.8986667,5.09333333 C16.8561992,5.09341551 16.8137672,5.09578933 16.7715556,5.10044444 C16.403692,5.13792263 16.0764266,5.35036386 15.8924444,5.67111111 L13.0382222,5.10044444 C13.0122567,5.09459451 12.9857274,5.09147862 12.9591111,5.09147862 C12.7877367,5.08801188 12.6382297,5.20724377 12.6035556,5.37511111 L12.6035556,5.38044444 L11.7502222,9.42222222 C10.1289808,9.4460739 8.55010526,9.94352785 7.208,10.8533333 C6.89368977,10.5558795 6.47719061,10.3904253 6.04444444,10.3911111 Z M12.2835556,17.3573333 C12.2213333,17.3573333 12.1591111,17.3573333 12.0968889,17.3573333 C12.0346667,17.3573333 11.9724444,17.3573333 11.9102222,17.3573333 C10.9386356,17.3591622 9.99321518,17.042565 9.21866667,16.456 C9.14140966,16.3621613 9.12510748,16.2322182 9.17678979,16.1222033 C9.2284721,16.0121884 9.33889551,15.9417778 9.46044444,15.9413333 C9.5336354,15.9418541 9.60447465,15.9672434 9.66133333,16.0133333 C10.3119132,16.4922723 11.0988078,16.7502092 11.9066667,16.7493333 C11.9653333,16.7493333 12.0248889,16.7493333 12.0844444,16.7493333 C12.144,16.7493333 12.2213333,16.7546667 12.2897778,16.7546667 C13.089059,16.7571818 13.8689155,16.5084238 14.5191111,16.0435556 C14.6482443,15.9214478 14.8514715,15.9255653 14.9755529,16.0528033 C15.0996342,16.1800413 15.098646,16.3833078 14.9733333,16.5093333 L14.9733333,16.4631111 C14.1987255,17.0469015 13.2544029,17.3612595 12.2844444,17.3582222 L12.2835556,17.3573333 Z M14.8151111,14.5057778 L14.7555556,14.5057778 L14.7644444,14.4613333 C14.444478,14.1461457 14.4354754,13.6328982 14.7441915,13.3066832 C15.0529075,12.9804682 15.5658717,12.961188 15.8982044,13.2633085 C16.230537,13.5654291 16.2600872,14.0779043 15.9646833,14.4162212 C15.6692794,14.7545382 15.1574989,14.7943465 14.8133333,14.5057778 L14.8151111,14.5057778 Z M9.376,14.4222222 C8.73202919,14.4217314 8.21033966,13.8993788 8.21066666,13.2554079 C8.21099398,12.6114369 8.73321398,12.0896147 9.37718496,12.0897781 C10.0211559,12.0899416 10.5431111,12.612029 10.5431111,13.256 C10.5377961,13.8978723 10.0187612,14.4169072 9.37688889,14.4222222 L9.376,14.4222222 Z" id="Subtraction_2"></path>
        </g>
    </g>
</svg>