<?xml version="1.0" encoding="UTF-8"?>
<svg width="32px" height="32px" viewBox="0 0 32 32" version="1.1" xmlns="http://www.w3.org/2000/svg" xmlns:xlink="http://www.w3.org/1999/xlink">
    <!-- Generator: Sketch 56.2 (81672) - https://sketch.com -->
    <title>Discord</title>
    <desc>Created with Sketch.</desc>
    <g id="Discord" stroke="none" stroke-width="1" fill="none" fill-rule="evenodd">
        <g transform="translate(4.000000, 3.000000)" fill="#999999" fill-rule="nonzero" id="Path_94">
            <path d="M20.5786682,0.00518582541 L2.96589852,0.00518582541 C2.24912424,0.00701671456 1.56246909,0.290388623 1.05710933,0.792913456 C0.551749575,1.29543829 0.269118198,1.97591549 0.271426061,2.68452895 L0.271426061,20.2532411 C0.269118198,20.9618546 0.551749575,21.6423318 1.05710933,22.1448566 C1.56246909,22.6473815 2.24912424,22.9307534 2.96589852,22.9325843 L17.8719703,22.9325843 L17.1725652,20.5289542 L18.8546345,22.0751945 L20.4449069,23.5306828 L23.2713951,26 L23.2713951,2.67934313 C23.2739325,1.97066001 22.9913761,1.29004958 22.4859661,0.787474798 C21.9805561,0.284900015 21.2937658,0.00160146108 20.5769197,0 L20.5786682,0.00518582541 Z M15.507981,16.9757995 C15.507981,16.9757995 15.034134,16.4165946 14.6398444,15.9230769 C15.5927255,15.7012689 16.4356214,15.1535926 17.0195703,14.3768366 C16.5466498,14.6880657 16.0395449,14.9452558 15.507981,15.1434745 C14.896523,15.4016282 14.2570124,15.5892673 13.602102,15.7026793 C12.4763614,15.9075333 11.3218584,15.9031367 10.1977475,15.6897148 C9.5378724,15.5620954 8.89115486,15.3752068 8.26564088,15.1313742 C7.93529424,15.0059453 7.61398762,14.8583829 7.30395883,14.6897148 C7.26549155,14.6637857 7.22615001,14.6508211 7.18593421,14.624892 C7.16623001,14.6151442 7.14846157,14.6019696 7.13347883,14.5859983 C6.89655534,14.4563526 6.76541688,14.3647364 6.76541688,14.3647364 C7.32792524,15.1252604 8.14152407,15.6675995 9.0655855,15.8980121 C8.67129586,16.3915298 8.18520929,16.9766638 8.18520929,16.9766638 C6.59958737,17.0190267 5.09657315,16.2786666 4.17586939,15.0017286 C4.21867106,12.3674395 4.8658574,9.77713286 6.06863452,7.42610199 C7.12729155,6.60414404 8.4179086,6.12729531 9.76236786,6.0613656 L9.89350632,6.21780467 C8.62875914,6.52710697 7.44850042,7.10815774 6.43669647,7.91961971 C6.43669647,7.91961971 6.72607534,7.76404494 7.21216191,7.54278306 C8.15700508,7.11640787 9.16401359,6.84017545 10.195999,6.72428695 C10.2696954,6.70921271 10.3445837,6.70053664 10.4198087,6.69835782 C11.3006245,6.58492186 12.1920148,6.57621679 13.0749254,6.67242869 C14.4632548,6.82909929 15.8071675,7.25278772 17.0309357,7.91961971 C16.0703999,7.14662737 14.9546931,6.58422389 13.7577197,6.26966292 L13.9421878,6.0613656 C15.2863916,6.12724616 16.5767443,6.6041101 17.6350468,7.42610199 C18.8379389,9.77709071 19.4851319,12.3674239 19.527812,15.0017286 C18.5996222,16.2764257 17.0944622,17.0155864 15.5062325,16.9766638 L15.507981,16.9757995 Z M9.39605442,10.9075194 C9.02463718,10.9225531 8.67454772,11.0831234 8.42308698,11.353776 C8.17162623,11.6244286 8.03947738,11.9829017 8.05581934,12.3500432 C8.02762501,13.1125849 8.62511955,13.7556811 9.39605442,13.792567 C9.76747166,13.7775334 10.1175611,13.616963 10.3690219,13.3463104 C10.6204826,13.0756578 10.7526315,12.7171847 10.7362895,12.3500432 C10.7545363,11.9824158 10.6230379,11.6228862 10.3711852,11.3518116 C10.1193324,11.0807371 9.76812293,10.9207179 9.39605442,10.9075194 L9.39605442,10.9075194 Z M14.1939736,10.9075194 C13.8224019,10.9223296 13.4720889,11.0828027 13.2204409,11.3534802 C12.968793,11.6241577 12.8365254,11.9827579 12.8528643,12.3500432 C12.8246811,13.1129058 13.4226921,13.7561383 14.1939736,13.792567 C14.5653908,13.7775334 14.9154803,13.616963 15.166941,13.3463104 C15.4184018,13.0756578 15.5505506,12.7171847 15.5342087,12.3500432 C15.5505506,11.9829017 15.4184018,11.6244286 15.166941,11.353776 C14.9154803,11.0831234 14.5653908,10.9225531 14.1939736,10.9075194 L14.1939736,10.9075194 Z"></path>
        </g>
    </g>
</svg>