<?xml version="1.0" encoding="UTF-8"?>
<svg width="15px" height="15px" viewBox="0 0 15 15" version="1.1" xmlns="http://www.w3.org/2000/svg" xmlns:xlink="http://www.w3.org/1999/xlink">
    <!-- Generator: Sketch 61.2 (89653) - https://sketch.com -->
    <title>Icons/Help</title>
    <desc>Created with Sketch.</desc>
    <g id="Page-1" stroke="none" stroke-width="1" fill="none" fill-rule="evenodd">
        <g id="Transaction-Flow-2" transform="translate(-546.000000, -202.000000)" fill="#9B9B9B" fill-rule="nonzero">
            <g id="Group-4" transform="translate(480.000000, 164.000000)">
                <g id="Icons/Help" transform="translate(65.000000, 37.000000)">
                    <path d="M8.5,1.41666667 C4.59,1.41666667 1.41666667,4.59 1.41666667,8.5 C1.41666667,12.41 4.59,15.5833333 8.5,15.5833333 C12.41,15.5833333 15.5833333,12.41 15.5833333,8.5 C15.5833333,4.59 12.41,1.41666667 8.5,1.41666667 Z M9.20833333,13.4583333 L7.79166667,13.4583333 L7.79166667,12.0416667 L9.20833333,12.0416667 L9.20833333,13.4583333 Z M10.6745833,7.96875 L10.0370833,8.62041667 C9.52708333,9.1375 9.20833333,9.5625 9.20833333,10.625 L7.79166667,10.625 L7.79166667,10.2708333 C7.79166667,9.49166667 8.11041667,8.78333333 8.62041667,8.26625 L9.49875,7.37375 C9.76083333,7.11875 9.91666667,6.76458333 9.91666667,6.375 C9.91666667,5.59583333 9.27916667,4.95833333 8.5,4.95833333 C7.72083333,4.95833333 7.08333333,5.59583333 7.08333333,6.375 L5.66666667,6.375 C5.66666667,4.80958333 6.93458333,3.54166667 8.5,3.54166667 C10.0654167,3.54166667 11.3333333,4.80958333 11.3333333,6.375 C11.3333333,6.99833333 11.0783333,7.565 10.6745833,7.96875 Z" id="Help"></path>
                </g>
            </g>
        </g>
    </g>
</svg>