<?xml version="1.0" encoding="UTF-8"?>
<svg fill="none" viewBox="0 0 194 29" xmlns="http://www.w3.org/2000/svg">
<path d="m74.665 26.026h40.69v-23.697h-40.69v23.697z" clip-rule="evenodd" fill="#231F20" fill-rule="evenodd"/>
<path d="m105.47 12.954c0.523-0.6235 1.178-0.9353 1.966-0.9353 0.804 0 1.464 0.3198 1.979 0.9588 0.514 0.6397 0.772 1.6828 0.772 3.1279 0 1.3593-0.256 2.3538-0.767 2.9861-0.511 0.6316-1.129 0.9468-1.855 0.9468-0.944 0-1.701-0.4449-2.271-1.3346-0.405-0.6275-0.608-1.5968-0.608-2.9076 0-1.2713 0.261-2.2186 0.784-2.8421zm-3.919-8.2119v17.506h3.126v-0.8107c0.782 0.5775 1.734 1.2481 3.457 1.2481 0.067 0 0.081-4e-4 0.143-0.0021 0.045 0.0017 0.064 0.0021 0.109 0.0021 1.443 0 2.658-0.5843 3.668-1.7516 1.011-1.1689 1.509-2.8323 1.509-4.9933 0-2.0899-0.502-3.6923-1.492-4.8093-0.699-0.7865-1.638-1.2911-2.661-1.5231-0.293-0.07931-0.627-0.13573-1-0.15229-1.352-0.12527-3.089 0.33224-3.897 1.0226l0.196-5.7364h-3.158z" clip-rule="evenodd" fill="#231F20" fill-rule="evenodd"/>
<path d="m86.158 22.469v-7.4416c0-1.1384-0.0562-1.9789-0.1687-2.52-0.1124-0.5418-0.3221-1.0355-0.6279-1.4814-0.3067-0.4453-0.7617-0.8121-1.3667-1.0986-0.5467-0.2592-1.1537-0.40005-1.8207-0.42517-0.0115-6.5e-4 -0.0222-0.00152-0.0334-0.00196-1.3774-0.07534-3.1396 0.33716-3.9619 1.1497v-5.692h-3.2683v17.511h3.2683v-6.3541c0-1.0672 0.0993-1.8736 0.2971-2.4187 0.1979-0.5466 0.5095-0.9543 0.9363-1.225 0.4265-0.2704 0.9109-0.4062 1.4541-0.4062 0.4727 0 0.8667 0.1057 1.1806 0.3166 0.3139 0.2114 0.5331 0.4962 0.6569 0.8541 0.1237 0.3588 0.186 1.2025 0.186 2.5322v6.7011h3.2683z" clip-rule="evenodd" fill="#231F20" fill-rule="evenodd"/>
<path d="m99.371 22.505v-12.684h-3.2718v5.3509c0 1.8156-0.0811 2.9563-0.2444 3.4222-0.163 0.4655-0.4657 0.8559-0.9083 1.1695-0.4419 0.3153-0.9432 0.4725-1.502 0.4725-0.4887 0-0.893-0.1172-1.211-0.3524-0.318-0.235-0.5379-0.5533-0.658-0.9557-0.1203-0.402-0.1803-1.4946-0.1803-3.2786v-5.8284h-3.2718v8.0264c0 1.1943 0.1476 2.13 0.4419 2.8066 0.2953 0.6769 0.7725 1.2025 1.4327 1.5767 0.6601 0.3745 1.4047 0.5614 2.2355 0.5614 0.1241 0 0.2473-0.0046 0.3695-0.0137 0.0037 0 0.0064 0 0.0098-7e-4 2.0823-0.0618 3.1673-1.0308 3.7193-1.6695v1.397h3.0389z" clip-rule="evenodd" fill="#231F20" fill-rule="evenodd"/>
<mask id="a" x="71" y="0" width="46" height="29" mask-type="alpha" maskUnits="userSpaceOnUse">
<path d="M71.1235 0H116.37V28.6295H71.1235V0Z" clip-rule="evenodd" fill="#fff" fill-rule="evenodd"/>
</mask>
<g mask="url(#a)">
<path d="m112.03 20.952c-1.008 1.1666-2.221 1.7506-3.662 1.7506-0.045 0-0.064-4e-4 -0.109-0.0022-0.062 0.0018-0.075 0.0022-0.143 0.0022-1.72 0-2.67-0.6702-3.45-1.2474v0.8102h-3.121v-17.496h3.153l-0.196 5.733c0.806-0.68997 2.54-1.1472 3.89-1.022 0.372 0.01655 0.706 0.07316 0.998 0.1522 1.022 0.2319 1.959 0.73623 2.657 1.5224 0.988 1.1161 1.489 2.7176 1.489 4.8066 0 2.1596-0.497 3.8222-1.506 4.9902zm-12.625 1.4651h-3.0493v-1.3931c-0.5538 0.6369-1.6425 1.6035-3.7319 1.6649-0.0034 6e-4 -0.0062 6e-4 -0.0098 6e-4 -0.1226 0.0094-0.246 0.0137-0.3708 0.0137-0.8334 0-1.5808-0.1863-2.2431-0.5596-0.6624-0.3732-1.1412-0.8973-1.4373-1.5723-0.2956-0.6749-0.4436-1.608-0.4436-2.799v-8.0037h3.2829v5.8119c0 1.779 0.0602 2.8685 0.1809 3.2694 0.1205 0.4013 0.3411 0.7188 0.6602 0.953 0.3193 0.2345 0.7247 0.3515 1.2154 0.3515 0.5606 0 1.0634-0.1566 1.5069-0.4712 0.444-0.3127 0.7477-0.702 0.9116-1.1662 0.1636-0.4647 0.2452-1.6022 0.2452-3.4127v-5.3357h3.2827v12.648zm-13.195 5e-4h-3.2827v-6.6818c0-1.3256-0.0626-2.1671-0.1869-2.5247-0.1245-0.357-0.3447-0.641-0.66-0.8518-0.3151-0.2101-0.7111-0.3157-1.1859-0.3157-0.5455 0-1.032 0.1355-1.4603 0.405-0.4287 0.27-0.7416 0.6768-0.9407 1.2215-0.1984 0.5435-0.2981 1.3476-0.2981 2.4119v6.3356h-3.2829v-17.46h3.2829v5.6754c0.8259-0.81024 2.5957-1.2216 3.9794-1.1464 0.0113 6.5e-4 0.022 0.0013 0.0333 0.00196 0.6701 0.02504 1.2796 0.1657 1.829 0.42394 0.6077 0.28563 1.0648 0.65143 1.3726 1.0954 0.3071 0.4446 0.5179 0.9372 0.6307 1.4772 0.113 0.5397 0.1696 1.3776 0.1696 2.5127v7.4201zm28.111-22.418h-41.117c-1.2792 0-2.0845 0.85136-2.0845 2.307v24.087c0 1.4536 0.8025 2.2355 2.0732 2.2355h41.138c1.271 0 2.035-0.7823 2.035-2.2355v-24.087c0-1.4556-0.766-2.307-2.045-2.307z" clip-rule="evenodd" fill="#FF9000" fill-rule="evenodd"/>
</g>
<path d="m107.34 12.091c-0.782 0-1.433 0.3109-1.952 0.9328-0.518 0.622-0.778 1.5668-0.778 2.8347 0 1.3075 0.202 2.2741 0.604 2.9001 0.565 0.8875 1.317 1.3312 2.254 1.3312 0.72 0 1.334-0.3144 1.841-0.9444 0.508-0.6306 0.761-1.6226 0.761-2.9783 0-1.4414-0.256-2.4818-0.766-3.1198-0.512-0.6373-1.166-0.9563-1.964-0.9563z" clip-rule="evenodd" fill="#FF9000" fill-rule="evenodd"/>
<path d="m0 22.252v-17.835h5.2953l3.1795 12.166 3.1438-12.166h5.3073v17.835h-3.2871v-14.039l-3.4786 14.039h-3.4067l-3.4664-14.039v14.039h-3.2871z" clip-rule="evenodd" fill="#fff" fill-rule="evenodd"/>
<path d="m23.099 15.819c0 1.2824 0.2989 2.2642 0.8967 2.9458s1.3351 1.0225 2.2119 1.0225c0.8769 0 1.612-0.3409 2.206-1.0225 0.5937-0.6816 0.8907-1.6717 0.8907-2.9702 0-1.266-0.297-2.2397-0.8907-2.9213-0.594-0.6818-1.3291-1.0225-2.206-1.0225-0.8768 0-1.6141 0.3407-2.2119 1.0225-0.5978 0.6816-0.8967 1.6636-0.8967 2.9457zm-3.4428-0.1817c0-1.1362 0.2749-2.2356 0.8248-3.2988 0.5501-1.063 1.3291-1.8747 2.3375-2.4345 1.0082-0.56004 2.1342-0.83996 3.3775-0.83996 1.921 0 3.4953 0.63498 4.7228 1.9049 1.2272 1.2702 1.8413 2.8749 1.8413 4.8143 0 1.9559-0.6199 3.577-1.8593 4.863-1.2395 1.2863-2.7999 1.9294-4.6808 1.9294-1.1639 0-2.2737-0.2678-3.3298-0.8036-1.0561-0.5355-1.8591-1.3207-2.4092-2.3552-0.5499-1.0347-0.8248-2.2946-0.8248-3.7796z" clip-rule="evenodd" fill="#fff" fill-rule="evenodd"/>
<path d="m37.922 15.53c0 1.3814 0.1863 2.3808 0.5594 2.9982 0.5391 0.8938 1.2927 1.3405 2.2607 1.3405 0.7691 0 1.4239-0.3351 1.9633-1.0055 0.5394-0.6702 0.8092-1.6715 0.8092-3.0041 0-1.487-0.2617-2.5573-0.7853-3.2116-0.5234-0.6538-1.1942-0.981-2.011-0.981-0.7934 0-1.4576 0.3228-1.9931 0.9688-0.5354 0.646-0.8032 1.6109-0.8032 2.8947zm8.9246 6.7536h-3.1057v-1.9011c-0.5158 0.7393-1.1246 1.2898-1.8266 1.6512-0.7021 0.3616-1.4101 0.5424-2.1241 0.5424-1.4516 0-2.6951-0.5991-3.7302-1.7976-1.0353-1.1984-1.553-2.8702-1.553-5.0152 0-2.1939 0.5036-3.8615 1.5112-5.0031 1.0075-1.1415 2.2806-1.7125 3.8197-1.7125 1.4118 0 2.6336 0.60152 3.6649 1.8039v-6.435h3.3438v17.867z" clip-rule="evenodd" fill="#fff" fill-rule="evenodd"/>
<path d="m57.723 14.712c-0.0238-0.9898-0.2733-1.7426-0.7487-2.258-0.4756-0.5152-1.0539-0.7729-1.7354-0.7729-0.7292 0-1.3313 0.2719-1.8067 0.8156-0.4756 0.5437-0.7093 1.2824-0.7013 2.2153h4.9921zm-0.1905 3.4575 3.3279 0.5722c-0.4277 1.2497-1.1032 2.2012-2.0264 2.8545-0.9231 0.6532-2.078 0.9798-3.4648 0.9798-2.1949 0-3.8192-0.7344-4.8729-2.2032-0.8321-1.1767-1.2482-2.6617-1.2482-4.4553 0-2.1423 0.5467-3.8201 1.6404-5.0332 1.0935-1.2131 2.476-1.8199 4.148-1.8199 1.8779 0 3.3596 0.6352 4.4452 1.9051 1.0856 1.2702 1.6046 3.2156 1.557 5.8368h-8.3674c0.0238 1.0144 0.2931 1.8034 0.8081 2.3676 0.5151 0.5639 1.1568 0.8458 1.9255 0.8458 0.523 0 0.9629-0.1462 1.3194-0.438 0.3565-0.2924 0.6257-0.7629 0.8082-1.4122z" clip-rule="evenodd" fill="#fff" fill-rule="evenodd"/>
<path d="m63.772 22.252h3.3851v-17.835h-3.3851v17.835z" clip-rule="evenodd" fill="#fff" fill-rule="evenodd"/>
<path d="m124.98 12.714v-7.35h2.773c0.488 0 0.861 0.02339 1.118 0.07019 0.361 0.06016 0.663 0.17547 0.907 0.34594 0.244 0.16712 0.44 0.40276 0.587 0.70692 0.15 0.30416 0.226 0.6384 0.226 1.0027 0 0.62503-0.199 1.1548-0.597 1.5893-0.398 0.43117-1.116 0.64676-2.156 0.64676h-1.885v2.9882h-0.973zm0.973-3.8555h1.9c0.629 0 1.075-0.11699 1.339-0.35096 0.264-0.23396 0.396-0.56319 0.396-0.98768 0-0.3075-0.079-0.56988-0.236-0.78714-0.154-0.2206-0.357-0.366-0.611-0.43619-0.164-0.04345-0.467-0.06518-0.908-0.06518h-1.88v2.6272z" fill="#fff"/>
<path d="m131.54 9.1347c0-1.22 0.328-2.1742 0.983-2.8628 0.655-0.69188 1.501-1.0378 2.537-1.0378 0.678 0 1.29 0.16211 1.835 0.48632 0.545 0.32422 0.959 0.77712 1.243 1.3587 0.288 0.57824 0.431 1.235 0.431 1.9704 0 0.74536-0.15 1.4122-0.451 2.0004-0.301 0.5883-0.727 1.0345-1.278 1.3387-0.552 0.3008-1.147 0.4512-1.785 0.4512-0.692 0-1.31-0.1671-1.855-0.5013-0.545-0.3343-0.958-0.7905-1.239-1.3688-0.28-0.5782-0.421-1.1899-0.421-1.835zm1.003 0.01504c0 0.88572 0.237 1.5843 0.712 2.0957 0.478 0.508 1.076 0.7621 1.795 0.7621 0.732 0 1.333-0.2574 1.805-0.7721 0.474-0.5148 0.712-1.2451 0.712-2.191 0-0.59829-0.102-1.1197-0.306-1.5642-0.201-0.44789-0.497-0.79383-0.888-1.0378-0.387-0.24734-0.824-0.37101-1.308-0.37101-0.689 0-1.282 0.23731-1.78 0.71193-0.495 0.47129-0.742 1.2601-0.742 2.3664z" fill="#fff"/>
<path d="m141.11 12.714-1.95-7.35h0.998l1.118 4.8181c0.12 0.5047 0.224 1.0061 0.311 1.5041 0.187-0.7855 0.297-1.2384 0.33-1.3587l1.399-4.9635h1.173l1.053 3.7201c0.264 0.9225 0.455 1.7899 0.572 2.6021 0.093-0.4646 0.215-0.9977 0.366-1.5994l1.153-4.7228h0.978l-2.016 7.35h-0.937l-1.55-5.6003c-0.13-0.46794-0.207-0.75538-0.23-0.86234-0.077 0.33758-0.149 0.62503-0.216 0.86234l-1.559 5.6003h-0.993z" fill="#fff"/>
<path d="m149.54 12.714v-7.35h5.315v0.86735h-4.342v2.2511h4.066v0.86234h-4.066v2.5018h4.512v0.8674h-5.485z" fill="#fff"/>
<path d="m156.39 12.714v-7.35h3.259c0.655 0 1.153 0.06684 1.494 0.20054 0.341 0.13036 0.613 0.36265 0.817 0.6969 0.204 0.33424 0.306 0.70358 0.306 1.108 0 0.52142-0.169 0.96095-0.507 1.3186-0.337 0.35764-0.859 0.58492-1.564 0.68185 0.257 0.12367 0.453 0.24567 0.587 0.366 0.284 0.2607 0.553 0.58662 0.807 0.97762l1.278 2.0005h-1.223l-0.973-1.5292c-0.284-0.4412-0.518-0.7788-0.702-1.0127-0.183-0.23401-0.349-0.39779-0.496-0.49137-0.144-0.09359-0.291-0.15877-0.441-0.19554-0.11-0.02339-0.291-0.03509-0.542-0.03509h-1.128v3.2639h-0.972zm0.972-4.1062h2.091c0.445 0 0.792-0.04513 1.043-0.13537 0.251-0.09359 0.441-0.24065 0.571-0.4412 0.131-0.20389 0.196-0.42449 0.196-0.6618 0-0.34761-0.127-0.63339-0.381-0.85733-0.251-0.22394-0.648-0.33592-1.193-0.33592h-2.327v2.4316z" fill="#fff"/>
<path d="m163.81 12.714v-7.35h5.314v0.86735h-4.341v2.2511h4.066v0.86234h-4.066v2.5018h4.512v0.8674h-5.485z" fill="#fff"/>
<path d="m170.64 12.714v-7.35h2.531c0.572 0 1.008 0.03509 1.309 0.10528 0.421 0.09693 0.78 0.27241 1.078 0.52643 0.388 0.32756 0.677 0.74704 0.867 1.2584 0.194 0.50804 0.291 1.0896 0.291 1.7447 0 0.55819-0.065 1.0528-0.195 1.484-0.131 0.4312-0.298 0.7888-0.502 1.0729-0.204 0.2808-0.428 0.5031-0.672 0.6668-0.24 0.1605-0.533 0.2825-0.877 0.366-0.341 0.0836-0.734 0.1254-1.178 0.1254h-2.652zm0.972-0.8674h1.569c0.485 0 0.864-0.0451 1.139-0.1354 0.277-0.0902 0.498-0.2172 0.661-0.381 0.231-0.2306 0.41-0.5398 0.537-0.9275 0.13-0.3911 0.195-0.86403 0.195-1.4189 0-0.76876-0.127-1.3587-0.381-1.7698-0.25-0.41446-0.556-0.69188-0.917-0.83227-0.261-0.10027-0.68-0.15041-1.259-0.15041h-1.544v5.6153z" fill="#fff"/>
<path d="m180.88 12.714v-7.35h2.758c0.561 0 1.011 0.0752 1.349 0.22561 0.34 0.14707 0.606 0.37602 0.797 0.68687 0.194 0.3075 0.29 0.63004 0.29 0.96763 0 0.31419-0.085 0.60999-0.255 0.88741-0.171 0.27742-0.428 0.50137-0.772 0.67183 0.444 0.13035 0.785 0.35263 1.022 0.66681 0.241 0.31419 0.361 0.68515 0.361 1.113 0 0.3442-0.073 0.6651-0.22 0.9626-0.144 0.2941-0.323 0.5214-0.537 0.6819-0.214 0.1604-0.483 0.2824-0.807 0.3659-0.321 0.0803-0.715 0.1204-1.183 0.1204h-2.803zm0.973-4.2616h1.589c0.432 0 0.741-0.02841 0.928-0.08523 0.247-0.07353 0.433-0.19553 0.556-0.36599 0.127-0.17047 0.191-0.38438 0.191-0.64175 0-0.24399-0.059-0.45791-0.176-0.64174-0.117-0.18718-0.284-0.31419-0.501-0.38104-0.217-0.07019-0.59-0.10529-1.118-0.10529h-1.469v2.221zm0 3.3942h1.83c0.314 0 0.535-0.0117 0.662-0.0351 0.224-0.0401 0.411-0.1069 0.561-0.2005 0.151-0.0936 0.274-0.229 0.371-0.4061 0.097-0.1805 0.146-0.3878 0.146-0.6217 0-0.2741-0.07-0.5114-0.211-0.71196-0.14-0.20388-0.336-0.34594-0.586-0.42616-0.248-0.08356-0.605-0.12534-1.073-0.12534h-1.7v2.5269z" fill="#fff"/>
<path d="m189.84 12.714v-3.1135l-2.833-4.2365h1.183l1.449 2.216c0.268 0.41446 0.517 0.82892 0.747 1.2434 0.221-0.38437 0.488-0.81722 0.802-1.2985l1.424-2.1609h1.133l-2.933 4.2365v3.1135h-0.972z" fill="#fff"/>
<path d="m124.98 24.449v-7.3499h2.773c0.488 0 0.861 0.0234 1.118 0.0701 0.361 0.0602 0.663 0.1755 0.907 0.346 0.244 0.1671 0.44 0.4028 0.587 0.7069 0.15 0.3042 0.226 0.6384 0.226 1.0027 0 0.6251-0.199 1.1548-0.597 1.5894-0.398 0.4311-1.116 0.6467-2.156 0.6467h-1.885v2.9881h-0.973zm0.973-3.8554h1.9c0.629 0 1.075-0.117 1.339-0.351s0.396-0.5632 0.396-0.9877c0-0.3075-0.079-0.5699-0.236-0.7871-0.154-0.2206-0.357-0.366-0.611-0.4362-0.164-0.0435-0.467-0.0652-0.908-0.0652h-1.88v2.6272z" fill="#fff"/>
<path d="m131.54 20.87c0-1.22 0.328-2.1742 0.983-2.8628 0.655-0.6919 1.501-1.0378 2.537-1.0378 0.678 0 1.29 0.1621 1.835 0.4863s0.959 0.7771 1.243 1.3587c0.288 0.5783 0.431 1.235 0.431 1.9704 0 0.7453-0.15 1.4122-0.451 2.0004-0.301 0.5883-0.727 1.0345-1.278 1.3387-0.552 0.3008-1.147 0.4512-1.785 0.4512-0.692 0-1.31-0.1671-1.855-0.5014-0.545-0.3342-0.958-0.7905-1.239-1.3687-0.28-0.5782-0.421-1.1899-0.421-1.835zm1.003 0.0151c0 0.8857 0.237 1.5843 0.712 2.0957 0.478 0.508 1.076 0.762 1.795 0.762 0.732 0 1.333-0.2573 1.805-0.7721 0.474-0.5147 0.712-1.245 0.712-2.1909 0-0.5983-0.102-1.1197-0.306-1.5643-0.201-0.4479-0.497-0.7938-0.888-1.0378-0.387-0.2473-0.824-0.371-1.308-0.371-0.689 0-1.282 0.2373-1.78 0.7119-0.495 0.4713-0.742 1.2601-0.742 2.3665z" fill="#fff"/>
<path d="m139.84 24.449v-7.3499h3.259c0.655 0 1.153 0.0668 1.494 0.2005 0.341 0.1304 0.613 0.3627 0.817 0.6969s0.306 0.7036 0.306 1.108c0 0.5214-0.169 0.961-0.507 1.3186-0.337 0.3576-0.859 0.5849-1.564 0.6819 0.257 0.1236 0.453 0.2456 0.587 0.3659 0.284 0.2608 0.553 0.5866 0.807 0.9777l1.278 2.0004h-1.223l-0.973-1.5291c-0.284-0.4412-0.518-0.7788-0.702-1.0128-0.183-0.2339-0.349-0.3977-0.496-0.4913-0.144-0.0936-0.291-0.1588-0.441-0.1955-0.11-0.0234-0.291-0.0351-0.542-0.0351h-1.128v3.2638h-0.972zm0.972-4.1061h2.091c0.445 0 0.792-0.0451 1.043-0.1354 0.251-0.0936 0.441-0.2406 0.571-0.4412 0.131-0.2039 0.196-0.4245 0.196-0.6618 0-0.3476-0.127-0.6334-0.381-0.8573-0.251-0.224-0.648-0.3359-1.193-0.3359h-2.327v2.4316z" fill="#fff"/>
<path d="m147.24 24.449v-7.3499h0.998l3.86 5.7707v-5.7707h0.933v7.3499h-0.998l-3.861-5.7757v5.7757h-0.932z" fill="#fff"/>
<path d="m154.7 24.449v-7.3499h0.973v3.0182h3.82v-3.0182h0.973v7.3499h-0.973v-3.4644h-3.82v3.4644h-0.973z" fill="#fff"/>
<path d="m166.91 17.099h0.973v4.2465c0 0.7387-0.084 1.3253-0.251 1.7598s-0.469 0.7888-0.907 1.0629c-0.435 0.2707-1.006 0.4061-1.715 0.4061-0.688 0-1.252-0.1187-1.689-0.356-0.438-0.2373-0.751-0.5799-0.938-1.0278-0.187-0.4512-0.281-1.0662-0.281-1.845v-4.2465h0.973v4.2415c0 0.6384 0.058 1.1097 0.175 1.4138 0.121 0.3009 0.325 0.5332 0.612 0.6969 0.291 0.1638 0.645 0.2457 1.063 0.2457 0.715 0 1.225-0.1621 1.529-0.4863s0.456-0.9476 0.456-1.8701v-4.2415z" fill="#fff"/>
<path d="m169.47 24.449v-7.3499h2.758c0.561 0 1.011 0.0752 1.348 0.2256 0.341 0.147 0.607 0.376 0.798 0.6868 0.194 0.3075 0.29 0.6301 0.29 0.9677 0 0.3142-0.085 0.61-0.255 0.8874-0.171 0.2774-0.428 0.5013-0.772 0.6718 0.444 0.1304 0.785 0.3526 1.022 0.6668 0.241 0.3142 0.361 0.6852 0.361 1.1131 0 0.3442-0.073 0.6651-0.22 0.9626-0.144 0.2941-0.323 0.5214-0.537 0.6818-0.214 0.1605-0.483 0.2825-0.807 0.366-0.321 0.0802-0.715 0.1203-1.183 0.1203h-2.803zm0.973-4.2615h1.589c0.431 0 0.741-0.0285 0.928-0.0853 0.247-0.0735 0.433-0.1955 0.556-0.366 0.127-0.1704 0.191-0.3843 0.191-0.6417 0-0.244-0.059-0.4579-0.176-0.6418-0.117-0.1871-0.284-0.3141-0.501-0.381-0.217-0.0702-0.59-0.1053-1.118-0.1053h-1.469v2.2211zm0 3.3942h1.83c0.314 0 0.535-0.0117 0.662-0.0351 0.224-0.0401 0.411-0.107 0.561-0.2006 0.151-0.0935 0.274-0.2289 0.371-0.4061 0.097-0.1804 0.146-0.3877 0.146-0.6216 0-0.2741-0.071-0.5114-0.211-0.712-0.14-0.2039-0.336-0.3459-0.586-0.4261-0.248-0.0836-0.605-0.1254-1.073-0.1254h-1.7v2.5269z" fill="#fff"/>
</svg>