<?xml version="1.0" encoding="UTF-8"?>
<svg width="32px" height="32px" viewBox="0 0 32 32" version="1.1" xmlns="http://www.w3.org/2000/svg" xmlns:xlink="http://www.w3.org/1999/xlink">
    <!-- Generator: Sketch 56.2 (81672) - https://sketch.com -->
    <title>IG</title>
    <desc>Created with Sketch.</desc>
    <g id="IG" stroke="none" stroke-width="1" fill="none" fill-rule="evenodd">
        <g id="Instagram" transform="translate(4.000000, 4.000000)" fill="#999999" fill-rule="nonzero">
            <path d="M17.8613333,4.31022193 C17.1015054,4.31071307 16.4858952,4.92698643 16.4862222,5.68681443 C16.4865495,6.44664243 17.1026903,7.06238541 17.8625183,7.06222194 C18.6223464,7.06205839 19.2382222,6.44605029 19.2382222,5.68622222 C19.2382222,5.32113027 19.0931293,4.97100451 18.8348869,4.71292889 C18.5766446,4.45485326 18.2264252,4.30998637 17.8613333,4.31022193 Z M11.7431111,6.07466667 C8.55213256,6.07466667 5.96533333,8.66146589 5.96533333,11.8524444 C5.96533333,15.043423 8.55213256,17.6302222 11.7431111,17.6302222 C14.9340897,17.6302222 17.5208889,15.043423 17.5208889,11.8524444 C17.5155076,8.66404441 14.9323992,6.08053847 11.744,6.07466667 L11.7431111,6.07466667 Z M11.7431111,15.5582222 C9.69793932,15.5582222 8.04,13.9002829 8.04,11.8551111 C8.04,9.80993932 9.69793932,8.152 11.7431111,8.152 C13.7882829,8.152 15.4462222,9.80993932 15.4462222,11.8551111 C15.4437743,13.8989212 13.7878094,15.5552837 11.744,15.5582222 L11.7431111,15.5582222 Z M23.4071111,7.05066667 C23.4071111,3.15669099 20.2504201,-2.27373675e-13 16.3564444,-2.27373675e-13 L7.05155556,-2.27373675e-13 C3.15743607,-2.27373675e-13 0.000490876023,3.15654721 5.68434189e-14,7.05066667 L5.68434189e-14,16.3573333 C5.68434189e-14,18.2274404 0.742957965,20.0209398 2.06540671,21.3432218 C3.38785546,22.6655039 5.18144849,23.4082358 7.05155556,23.4080001 L16.3573333,23.4080001 C18.2273587,23.4082358 20.0208603,22.6654756 21.343168,21.343168 C22.6654756,20.0208603 23.4082358,18.2273587 23.4080001,16.3573333 L23.4071111,7.05066667 Z M21.1991111,16.3573333 C21.1991111,17.6416067 20.6888747,18.8732665 19.780673,19.7813015 C18.8724712,20.6893366 17.6407178,21.1993469 16.3564444,21.1991112 L7.05155556,21.1991112 C5.76720049,21.1993469 4.53535562,20.6893649 3.62701274,19.7813554 C2.71866987,18.873346 2.20823573,17.6416884 2.208,16.3573333 L2.208,7.05066667 C2.20849086,4.37599194 4.37688078,2.208 7.05155556,2.208 L16.3573333,2.208 C19.0318643,2.208 21.2,4.37613572 21.2,7.05066667 L21.1991111,16.3573333 Z" id="Path_90"></path>
        </g>
    </g>
</svg>