<?xml version="1.0" encoding="UTF-8"?>
<svg width="212px" height="136px" viewBox="0 0 212 136" version="1.1" xmlns="http://www.w3.org/2000/svg" xmlns:xlink="http://www.w3.org/1999/xlink">
    <!-- Generator: Sketch 56.2 (81672) - https://sketch.com -->
    <title>Dark CVC</title>
    <desc>Created with Sketch.</desc>
    <defs>
        <linearGradient x1="87.485924%" y1="32.6022223%" x2="11.0931619%" y2="68.169692%" id="linearGradient-1">
            <stop stop-color="#3A3A3A" offset="0%"></stop>
            <stop stop-color="#1B1B1B" offset="100%"></stop>
        </linearGradient>
    </defs>
    <g id="Dark-CVC" stroke="none" stroke-width="1" fill="none" fill-rule="evenodd">
        <g id="Group-125">
            <path d="M206,61 L210.884358,66.6984173 C211.52634,67.4473967 211.52634,68.5526033 210.884358,69.3015827 L206,75 L206,132.154172 C206,133.49145 205.860762,133.97638 205.599301,134.465269 C205.33784,134.954157 204.954157,135.33784 204.465269,135.599301 C203.97638,135.860762 203.49145,136 202.154172,136 L3.8458278,136 C2.50854969,136 2.02362033,135.860762 1.53473144,135.599301 C1.04584256,135.33784 0.662159695,134.954157 0.400699056,134.465269 C0.139238417,133.97638 1.70590442e-13,133.49145 1.70426673e-13,132.154172 L1.70633841e-13,3.8458278 C1.70470071e-13,2.50854969 0.139238417,2.02362033 0.400699056,1.53473144 C0.662159695,1.04584256 1.04584256,0.662159695 1.53473144,0.400699056 C2.02362033,0.139238417 2.50854969,9.02779573e-17 3.8458278,-1.55376046e-16 L202.154172,1.55376046e-16 C203.49145,-9.02779573e-17 203.97638,0.139238417 204.465269,0.400699056 C204.954157,0.662159695 205.33784,1.04584256 205.599301,1.53473144 C205.860762,2.02362033 206,2.50854969 206,3.8458278 L206,61 Z" id="Combined-Shape" fill="#3F3F3F" fill-rule="nonzero"></path>
            <g id="Group-124" transform="translate(12.000000, 12.000000)">
                <rect id="Rectangle" fill="url(#linearGradient-1)" x="0" y="0" width="182" height="113" rx="5"></rect>
                <rect id="Rectangle" fill="#5F5F5F" x="0" y="15" width="182" height="21"></rect>
                <rect id="Rectangle" fill="#EBEBEB" x="9" y="42" width="165" height="21"></rect>
                <path d="M55.5856158,37 C47.8716976,44.2960881 40.7441863,52.2654792 32.4438612,58.8882644 C28.0218917,62.4165303 22.3141283,70.4853607 17.6728321,67.2504082 C10.1481424,62.0057498 30.1589244,36.7268725 35.1510833,44.6235072 C49.5635431,67.4212453 16.8789163,58.5016245 50.1685773,45.6070601 C52.8102464,44.5838243 46.3426058,55.5506562 48.6923824,53.9692039 C53.3231825,50.8525717 52.9316658,42.0242415 58.2072237,40.196871 C62.929359,38.5611974 46.4621468,50.7890984 50.8210606,53.2318631 C56.3376523,56.3233984 61.9762735,45.7403261 68.300609,45.8532723 C90.4394113,46.2486487 45.5405822,60.5895006 69.0400036,50.5261207 C69.5841789,50.2930833 67.4626007,51.9772031 68.0541441,52.002098 C80.5470732,52.5278588 102.285765,56.0327047 111,43.3082157" id="Sign" stroke="#6F757C" stroke-width="1.2"></path>
                <text id="CVC" font-family="ArialMT, Arial" font-size="12" font-weight="normal" letter-spacing="-0.0255606774" fill="#FF0000">
                    <tspan x="143" y="98">CVC</tspan>
                </text>
                <text id="000" font-family="ArialMT, Arial" font-size="12" font-weight="normal" letter-spacing="-0.0255606774" fill="#000000">
                    <tspan x="115" y="57">000</tspan>
                </text>
                <text id="XXX" font-family="ArialMT, Arial" font-size="12" font-weight="normal" letter-spacing="-0.0255606774" fill="#000000">
                    <tspan x="143" y="57">XXX</tspan>
                </text>
                <circle id="Oval" stroke="#FF0000" stroke-width="2" cx="155.5" cy="52.5" r="18.5"></circle>
                <path d="M155.5,71 L155.5,83.7546628" id="Path-8" stroke="#FF0000" stroke-width="2"></path>
            </g>
        </g>
    </g>
</svg>