<svg id="Capa_1" data-name="Capa 1" xmlns="http://www.w3.org/2000/svg" xmlns:xlink="http://www.w3.org/1999/xlink" viewBox="0 0 2271 747.11"><defs><style>.cls-1{fill:none;}.cls-2{clip-path:url(#clip-path);}.cls-3{fill:#b2b2b2;}</style><clipPath id="clip-path"><rect class="cls-1" x="2210.35" y="276.93" width="21.52" height="281.92"/></clipPath></defs><title>joinlife-kids-large-double</title><g class="cls-2"><path class="cls-3" d="M2210.76,289.26h20.71V287.4h-18v-.06l18-7.92v-2.49h-20.71v1.85h18v.06l-18,7.92Zm10.35,15.17c-6.12,0-9.13-1.51-9.13-4.73s2.93-4.79,9.13-4.79,9.14,1.54,9.14,4.76-2.9,4.76-9.14,4.76m-10.7-4.76c0,4.41,3.51,6.61,10.7,6.61s10.71-2.2,10.71-6.61-3.54-6.61-10.71-6.61-10.7,2.23-10.7,6.61m.35,12.39h20.71V310.2h-20.71Zm0,15.17h1.56v-5.34h19.15V320h-19.15v-5.34h-1.56Zm-.35,7.89c0,4.4,3.51,6.61,10.7,6.61s10.71-2.21,10.71-6.61c0-3.72-2.55-5.89-7.37-6.15v1.85c3.83.23,5.8,1.77,5.8,4.3,0,3.19-2.9,4.75-9.14,4.75s-9.13-1.56-9.13-4.75c0-2.47,1.74-4.07,4.81-4.09v-1.86c-4,0-6.38,2.26-6.38,5.95m.35,20h20.71V344.63h-1.57v8.67h-8.47v-7.86h-1.56v7.86h-7.55v-8.41h-1.56Zm0,13.08h20.71V357.8h-1.57v8.59h-19.14Zm0,13.08h20.71V370.88h-1.57v8.59h-19.14Zm10.35,15.18c-6.12,0-9.13-1.51-9.13-4.73s2.93-4.79,9.13-4.79,9.14,1.54,9.14,4.76-2.9,4.76-9.14,4.76m-10.7-4.76c0,4.41,3.51,6.61,10.7,6.61s10.71-2.2,10.71-6.61-3.54-6.62-10.71-6.62-10.7,2.24-10.7,6.62m0,15.78c0,4.41,3.51,6.61,10.7,6.61s10.71-2.2,10.71-6.61c0-3.71-2.55-5.89-7.37-6.15v1.85c3.83.24,5.8,1.77,5.8,4.3,0,3.19-2.9,4.76-9.14,4.76s-9.13-1.57-9.13-4.76c0-2.47,1.74-4.06,4.81-4.09v-1.86c-4,0-6.38,2.26-6.38,5.95m21.41,24.83v-1.57l-21.41-7.08v1.57ZM2210.76,457h20.71V445.17h-3.42v7.69h-5.57v-7h-3.43v7h-4.87v-7.4h-3.42Zm0,14.16h20.71V467h-9v-7h-3.43v7h-4.87v-7.39h-3.42Zm0,8h20.71V475h-20.71Zm0,14.35h20.71V482h-3.42v7.4h-17.29Zm0,25.07h20.71v-3.83H2217v-.06l14.5-5.11v-4.75h-20.71v3.83h14.18v.05l-14.18,5Zm0,8h20.71v-4.18h-20.71Zm10.35,13.32c-5.16,0-7.68-.29-7.68-2.88s2.52-2.87,7.68-2.87,7.69.26,7.69,2.87-2.46,2.88-7.69,2.88m-10.76-2.88c0,6.39,4.67,7.05,10.76,7.05s10.77-.69,10.77-7.05-4.62-7-10.77-7-10.76.69-10.76,7m.41,14.25h15c2.29,0,3.07.52,3.07,1.85s-.61,1.86-3.25,1.86h-.64v3.83h.85c4.55,0,6.12-2.12,6.12-5.48,0-4.5-2.12-6.24-6.12-6.24h-15Z"/></g></svg>