<?xml version="1.0" encoding="UTF-8"?>
<svg width="32px" height="32px" viewBox="0 0 32 32" version="1.1" xmlns="http://www.w3.org/2000/svg" xmlns:xlink="http://www.w3.org/1999/xlink">
    <!-- Generator: Sketch 56.2 (81672) - https://sketch.com -->
    <title>Twitter</title>
    <desc>Created with Sketch.</desc>
    <g id="Twitter" stroke="none" stroke-width="1" fill="none" fill-rule="evenodd">
        <g transform="translate(4.000000, 6.000000)" fill="#999999" fill-rule="nonzero" id="Group_114">
            <g>
                <path d="M23.4768,2.32608 C22.7155063,2.65345014 21.9153846,2.88187198 21.096,3.00576 C21.48,2.94144 22.04544,2.24736 22.27104,1.96608 C22.6239035,1.54044824 22.8929646,1.05183848 23.064,0.52608 C23.08416,0.4848 23.09952,0.43008 23.0592,0.40224 C23.0178048,0.384637055 22.9703906,0.388588239 22.93248,0.4128 C22.0388304,0.890038584 21.0890822,1.25381312 20.10528,1.49568 C20.0366197,1.51547468 19.962647,1.49550203 19.91328,1.44384 C19.8370087,1.35373333 19.7542263,1.26934661 19.6656,1.19136 C19.2573307,0.839448158 18.7946831,0.556088675 18.29568,0.35232 C17.6299616,0.0826652483 16.9119437,-0.0331758478 16.1952,0.01344 C15.49903,0.0605735033 14.8203031,0.252160193 14.20224,0.576 C13.5825618,0.899934734 13.0354225,1.34679239 12.59424,1.88928 C12.1374056,2.45119644 11.8096725,3.10666265 11.63424,3.80928 C11.4843446,4.47620082 11.4670566,5.16608848 11.58336,5.83968 C11.59872,5.95296 11.58912,5.96832 11.48736,5.95296 C7.74607418,5.5715628 4.28172284,3.80789303 1.77216,1.00704 C1.65888,0.8784 1.59744,0.8784 1.50432,1.0176 C0.46838792,2.9303992 0.809821349,5.29624021 2.34432,6.83808 C2.53632,7.01856 2.72832,7.19904 2.94144,7.36416 C2.28784184,7.31449925 1.65058539,7.13568894 1.06656,6.83808 C0.95328,6.76608 0.89568,6.80736 0.88608,6.93408 C0.878784781,7.1202331 0.889070364,7.3066593 0.9168,7.49088 C1.14996658,9.2717175 2.32371879,10.789159 3.9888,11.4624 C4.1884616,11.5499957 4.39750602,11.6144162 4.61184,11.6544 C4.00645171,11.7753651 3.38512674,11.7945078 2.77344,11.71104 C2.63904,11.68512 2.58816,11.75232 2.63904,11.88096 C3.27905261,13.5559484 4.74075693,14.7800895 6.50208,15.11616 C6.67776,15.14688 6.85248,15.14688 7.02816,15.1872 C7.0176,15.20352 7.00704,15.20352 6.99744,15.21792 C6.56352,15.87936 5.0592,16.36992 4.3584,16.61664 C3.07561128,17.0743221 1.70902165,17.2491984 0.35232,17.12928 C0.13632,17.0976 0.0912,17.10048 0.03264,17.12928 C-0.02592,17.15808 0.02592,17.2176 0.09504,17.27328 C0.36768,17.45376 0.64608,17.61312 0.93024,17.76768 C1.78112325,18.2220268 2.67929999,18.5816195 3.60864,18.84 C8.47271404,20.3025567 13.7475761,19.0689403 17.45856,15.60096 C20.29632,12.78048 21.29184,8.89248 21.29184,4.99776 C21.29184,4.84512 21.47136,4.7616 21.57984,4.68096 C22.2973437,4.12246313 22.929311,3.46203464 23.45568,2.72064 C23.5379398,2.61301541 23.5791262,2.47958506 23.57184,2.34432 L23.57184,2.32416 C23.56416,2.26464 23.5726646,2.28672 23.4768,2.32608 Z" id="Path_84"></path>
            </g>
        </g>
    </g>
</svg>