<?xml version="1.0" encoding="UTF-8"?>
<svg width="32px" height="32px" viewBox="0 0 32 32" version="1.1" xmlns="http://www.w3.org/2000/svg" xmlns:xlink="http://www.w3.org/1999/xlink">
    <!-- Generator: Sketch 56.2 (81672) - https://sketch.com -->
    <title>Yt</title>
    <desc>Created with Sketch.</desc>
    <g id="Yt" stroke="none" stroke-width="1" fill="none" fill-rule="evenodd">
        <g id="Youtube" transform="translate(4.000000, 8.000000)" fill="#999999" fill-rule="nonzero">
            <path d="M23.5025455,4.95854545 C23.5025455,2.22001642 21.282529,0 18.544,0 L5.68436364,0 C2.94600094,0.000401548902 0.726219731,2.22018276 0.725818182,4.95854545 L0.725818182,10.9847273 C0.725818182,13.7232563 2.9458346,15.9432727 5.68436364,15.9432727 L18.5447273,15.9432727 C21.2829723,15.9428711 23.5025455,13.7229723 23.5025455,10.9847273 L23.5025455,4.95854545 Z M15.3890909,8.27636364 L10.2603636,11.0894545 C10.0370909,11.2101818 9.83636364,11.0487273 9.83636364,10.7985455 L9.83636364,5.02109091 C9.83636364,4.76436364 10.0429091,4.60363636 10.2661818,4.73018182 L15.4298182,7.69163636 C15.5316242,7.75794581 15.5897027,7.8740499 15.581711,7.9952833 C15.5737192,8.1165167 15.5009022,8.2239921 15.3912727,8.27636364 L15.3890909,8.27636364 Z" id="Path_83"></path>
        </g>
    </g>
</svg>