<?xml version="1.0" encoding="utf-8"?>
<!-- Generator: Adobe Illustrator 22.0.1, SVG Export Plug-In . SVG Version: 6.00 Build 0)  -->
<svg version="1.1" id="Layer_1" xmlns="http://www.w3.org/2000/svg" xmlns:xlink="http://www.w3.org/1999/xlink" x="0px" y="0px"
	 viewBox="0 0 206 55" style="enable-background:new 0 0 206 55;" xml:space="preserve">
<style type="text/css">
	.st0{fill:#AE1A20;}
	.st1{fill:#FEFEFE;}
</style>
<g>
	<path class="st0" d="M18.5,29.5c1.4-0.5,5.8-2,5.8-8c0-4.8-3.6-8.2-9.9-8.2H4.1l7,4.5h1.9c3.8,0,5.6,1.6,5.6,4.1S16.4,26,13.7,26
		h-2.7l-6.9,4.4v10.2h5.6V30.5H13l5.7,10.1h6.4L18.5,29.5z M0.7,15.3l9.9,6.9L0.7,29V15.3z"/>
	<g id="surface32_1_">
		<path class="st0" d="M27.1,13.1h18.7v4.8H32.5v6.3h6.4v4.5h-6.4v7.1h14.4v4.8H27.1V13.1z"/>
	</g>
	<g id="surface40_1_">
		<path class="st0" d="M54.9,36.4h2.7c5.3,0,8.2-1.9,8.2-8.9c0-5.4-2.5-8.9-8.3-8.9h-2.6C54.9,18.5,54.9,36.4,54.9,36.4z M49.4,13.1
			h7.9c9.9,0,14.1,5.9,14.1,13.7c0,8.9-4.5,13.7-13.1,13.7h-8.9L49.4,13.1L49.4,13.1z"/>
	</g>
	<path class="st1" d="M70.2,13.1v2.5h8.4v25h2.9v-25H90v-2.4L70.2,13.1L70.2,13.1L70.2,13.1z"/>
	<g id="surface8_1_">
		<path class="st1" d="M111.8,30.8c0,6.4-3.3,9.7-9.9,9.7c-6.6,0-9.9-3.3-9.9-9.7V13.2h2.8v17.5c0,5.4,2.6,7.4,7.1,7.4
			c4.5,0,7.1-2,7.1-7.4V13.2h2.8L111.8,30.8L111.8,30.8z"/>
	</g>
	<g id="surface16_1_">
		<path class="st1" d="M117,38.5h7.9c4.6,0,7.6-2.7,7.6-5.5c0-3.6-3.7-6.1-8.5-6.1H117V38.5z M117,24.7h6.7c4.1,0,7.6-1.7,7.6-4.8
			c0-3.5-3.1-4.7-7.4-4.7h-7L117,24.7L117,24.7z M114.7,13.1h10.3c7.6,0,8.5,4.9,8.5,6.5c0,3.5-1.6,5.5-5.2,6.1v0.1
			c4.2,0.4,6.3,3.5,6.3,7.2c0,3.9-2.7,7.7-9.3,7.7h-10.6L114.7,13.1L114.7,13.1z"/>
	</g>
	<g id="surface24_1_">
		<path class="st1" d="M136.2,13.1H153v2.5h-14v9.7h4.9v2.4H139v10.5h14.8v2.4h-17.7L136.2,13.1L136.2,13.1z"/>
	</g>
</g>
</svg>
