<svg xmlns="http://www.w3.org/2000/svg" xmlns:xlink="http://www.w3.org/1999/xlink" width="20" height="21" viewBox="0 0 20 21">
    <defs>
        <path id="a" d="M19.767 8.523h-9.534v4.024h5.488c-.512 2.557-2.651 4.025-5.488 4.025-3.35 0-6.047-2.746-6.047-6.155 0-3.41 2.698-6.156 6.047-6.156 1.441 0 2.744.521 3.767 1.373l2.977-3.03C15.163.994 12.837 0 10.233 0 4.558 0 0 4.64 0 10.417c0 5.776 4.558 10.416 10.233 10.416 5.116 0 9.767-3.788 9.767-10.416a8.79 8.79 0 0 0-.233-1.894z"/>
        <path id="c" d="M19.767 8.523h-9.534v4.024h5.488c-.512 2.557-2.651 4.025-5.488 4.025-3.35 0-6.047-2.746-6.047-6.155 0-3.41 2.698-6.156 6.047-6.156 1.441 0 2.744.521 3.767 1.373l2.977-3.03C15.163.994 12.837 0 10.233 0 4.558 0 0 4.64 0 10.417c0 5.776 4.558 10.416 10.233 10.416 5.116 0 9.767-3.788 9.767-10.416a8.79 8.79 0 0 0-.233-1.894z"/>
        <path id="e" d="M19.767 8.523h-9.534v4.024h5.488c-.512 2.557-2.651 4.025-5.488 4.025-3.35 0-6.047-2.746-6.047-6.155 0-3.41 2.698-6.156 6.047-6.156 1.441 0 2.744.521 3.767 1.373l2.977-3.03C15.163.994 12.837 0 10.233 0 4.558 0 0 4.64 0 10.417c0 5.776 4.558 10.416 10.233 10.416 5.116 0 9.767-3.788 9.767-10.416a8.79 8.79 0 0 0-.233-1.894z"/>
        <path id="g" d="M19.767 8.523h-9.534v4.024h5.488c-.512 2.557-2.651 4.025-5.488 4.025-3.35 0-6.047-2.746-6.047-6.155 0-3.41 2.698-6.156 6.047-6.156 1.441 0 2.744.521 3.767 1.373l2.977-3.03C15.163.994 12.837 0 10.233 0 4.558 0 0 4.64 0 10.417c0 5.776 4.558 10.416 10.233 10.416 5.116 0 9.767-3.788 9.767-10.416a8.79 8.79 0 0 0-.233-1.894z"/>
    </defs>
    <g fill="none" fill-rule="evenodd">
        <g>
            <mask id="b" fill="#fff">
                <use xlink:href="#a"/>
            </mask>
            <path fill="#FBBC05" fill-rule="nonzero" d="M-.93 16.572V4.262l7.907 6.155z" mask="url(#b)"/>
        </g>
        <g>
            <mask id="d" fill="#fff">
                <use xlink:href="#c"/>
            </mask>
            <path fill="#EA4335" fill-rule="nonzero" d="M-.93 4.261l7.907 6.156 3.256-2.889 11.162-1.846V-.947H-.93z" mask="url(#d)"/>
        </g>
        <g>
            <mask id="f" fill="#fff">
                <use xlink:href="#e"/>
            </mask>
            <path fill="#34A853" fill-rule="nonzero" d="M-.93 16.572l13.953-10.89 3.675.473 4.697-7.102V21.78H-.93z" mask="url(#f)"/>
        </g>
        <g>
            <mask id="h" fill="#fff">
                <use xlink:href="#g"/>
            </mask>
            <path fill="#4285F4" fill-rule="nonzero" d="M21.395 21.78L6.977 10.417l-1.86-1.42L21.394 4.26z" mask="url(#h)"/>
        </g>
    </g>
</svg>
