<svg width="16" height="16" viewBox="0 0 16 16" fill="none" xmlns="http://www.w3.org/2000/svg">
<path fill-rule="evenodd" clip-rule="evenodd" d="M2 3.02678C2 3.43679 1.76596 3.79066 1.42756 3.95524L4.66667 8.66667V12H0.666675V3.99514C0.278273 3.85418 0 3.47385 0 3.02678C0 2.45971 0.447715 2 1 2C1.55228 2 2 2.45971 2 3.02678ZM8.94784 3C8.94784 3.31506 8.80594 3.59609 8.58419 3.77938C9.30541 5.06194 11.3333 8.66929 11.3333 8.68142C11.3283 9.85673 11.3333 12 11.3333 12H9.33333V10C9.33333 9.26362 8.73638 8.66667 8 8.66667C7.26362 8.66667 6.66667 9.26362 6.66667 10V12H4.66667V8.66667L7.39976 3.80783C7.15742 3.62593 7 3.33184 7 3C7 2.44772 7.43604 2 7.97392 2C8.5118 2 8.94784 2.44772 8.94784 3ZM15.9116 3C15.9116 3.40765 15.674 3.75832 15.3333 3.91404V11.9897H11.3346V8.66667L14.5876 3.93344C14.2227 3.78905 13.9638 3.42557 13.9638 3C13.9638 2.44772 14.3998 2 14.9377 2C15.4756 2 15.9116 2.44772 15.9116 3Z" fill="url(#paint0_linear)"/>
<defs>
<linearGradient id="paint0_linear" x1="7.96446" y1="12.0023" x2="7.96446" y2="2.00578" gradientUnits="userSpaceOnUse">
<stop stop-color="#E39900"/>
<stop offset="1" stop-color="#FFC582"/>
</linearGradient>
</defs>
</svg>
