<?xml version="1.0" encoding="utf-8"?>
<!-- Generator: Adobe Illustrator 24.1.1, SVG Export Plug-In . SVG Version: 6.00 Build 0)  -->
<svg version="1.1" id="Livello_1" xmlns="http://www.w3.org/2000/svg" xmlns:xlink="http://www.w3.org/1999/xlink" x="0px" y="0px"
	 viewBox="0 0 144 16" width="144" height="16" style="enable-background:new 0 0 144 16;" xml:space="preserve">
<style type="text/css">
	.st0{fill:#585C64;}
</style>
<g transform="translate(0, 0)">
	<path class="st0" d="M15,16H1c-0.6,0-1-0.4-1-1V1c0-0.6,0.4-1,1-1h14c0.6,0,1,0.4,1,1v14C16,15.6,15.6,16,15,16z M2,14h12V2H2V14z"
		/>
	<path class="st0" d="M6,4c0.6,0,1,0.4,1,1S6.6,6,6,6S5,5.6,5,5S5.4,4,6,4z"/>
	<polygon class="st0" points="3,12 5,8 7,10 10,6 13,12 	"/>
</g>
<g transform="translate(0, 0)">
	<path class="st0" d="M291,16h-14c-0.6,0-1-0.4-1-1V1c0-0.6,0.4-1,1-1h14c0.6,0,1,0.4,1,1v14C292,15.6,291.6,16,291,16z M278,14h12
		V2h-12V14z"/>
	<path class="st0" d="M282,4c0.6,0,1,0.4,1,1s-0.4,1-1,1s-1-0.4-1-1S281.4,4,282,4z"/>
	<polygon class="st0" points="279,12 281,8 283,10 286,6 289,12 	"/>
</g>
<g transform="translate(16, 0)">
	<path class="st0" d="M284,2c1.1,0,2,0.9,2,2v1c0,1.1-0.9,2-2,2s-2-0.9-2-2V4C282,2.9,282.9,2,284,2 M284,0c-2.2,0-4,1.8-4,4v1
		c0,2.2,1.8,4,4,4s4-1.8,4-4V4C288,1.8,286.2,0,284,0L284,0z"/>
	<path class="st0" d="M285,12c1.5,0,2.8,0.8,3.5,2h-8.9c0.7-1.2,2-2,3.5-2H285 M285,10h-2c-3.3,0-6,2.7-6,6l0,0h14l0,0
		C291,12.7,288.3,10,285,10L285,10z"/>
</g>
<g transform="translate(32, 0)">
	<path class="st0" d="M288,0h-11v16h11c1.7,0,3-1.3,3-3V3C291,1.3,289.7,0,288,0z M289,13c0,0.6-0.4,1-1,1h-9V2h9c0.6,0,1,0.4,1,1
		V13z"/>
	<polygon class="st0" points="281,9 283,7 285,9 285,3 281,3 	"/>
</g>
<g transform="translate(48, 0)">
	<path class="st0" d="M284,0c-4.4,0-8,3.1-8,7s3.6,7,8,7c0.2,0,0.4,0,0.6,0l5.4,2v-4.4c1.2-1.2,2-2.8,2-4.6C292,3.1,288.4,0,284,0z
		 M288,10.8v2.3l-3.1-1.1c0,0-0.7,0-0.9,0c-3.3,0-6-2.2-6-5s2.7-5,6-5s6,2.2,6,5C290,9.2,288,10.8,288,10.8z"/>
</g>
<g transform="translate(64, 0)">
	<path class="st0" d="M284,0c-4.4,0-8,3.6-8,8s3.6,8,8,8s8-3.6,8-8S288.4,0,284,0z M289.9,9h-5.2l-1.8-4.4l-1.8,0.8l1.4,3.6h-4.4
		C278,8.7,278,8.3,278,8c0-3.3,2.7-6,6-6s6,2.7,6,6C290,8.3,290,8.7,289.9,9z"/>
</g>
<g transform="translate(80, 0)">
	<path class="st0" d="M286,14h-4c0,1.1,0.9,2,2,2S286,15.1,286,14z"/>
	<path class="st0" d="M291,11h-0.5c-0.7-0.7-1.5-1.7-1.5-3V5c0-2.8-2.2-5-5-5s-5,2.2-5,5v3c0,1.3-0.8,2.3-1.5,3H277
		c-0.6,0-1,0.4-1,1s0.4,1,1,1h14c0.6,0,1-0.4,1-1S291.6,11,291,11z"/>
</g>
<g>
	<path class="st0" d="M30.4,9.4c0,0,0-0.1,0-0.1c0-0.9-0.7-1.6-1.6-1.6c-0.3,0-0.6,0.1-0.9,0.3c-0.4-1-1.4-1.6-2.5-1.6
		c-1.5,0-2.8,1.3-2.8,2.8c0,0.1,0,0.1,0,0.2c-1.2,0.1-2.2,1.1-2.2,2.4c0,1.3,1.1,2.4,2.4,2.4h6.8c1.3,0,2.4-1.1,2.4-2.4
		C32,10.6,31.3,9.7,30.4,9.4L30.4,9.4z M19.6,8.9c-1.1-1.1-1.1-2.9,0-4c1.1-1.1,2.9-1.1,4,0c0.2,0.2,0.4,0.5,0.6,0.8
		c0.2-0.1,0.5-0.1,0.8-0.2l0.7-2.2c0.1-0.3-0.2-0.6-0.5-0.5L23,3.6l-1-2.1c-0.1-0.3-0.5-0.3-0.7,0l-1,2.1L18,2.8
		c-0.3-0.1-0.6,0.2-0.5,0.5l0.7,2.2l-2.1,1c-0.3,0.1-0.3,0.5,0,0.7l2.1,1l-0.7,2.2c-0.1,0.3,0.2,0.6,0.5,0.5l1.9-0.6
		c0.2-0.3,0.4-0.6,0.6-0.8C20.2,9.3,19.9,9.1,19.6,8.9L19.6,8.9z M19.5,6.9c0,1,0.7,1.9,1.7,2.1c0.2-0.1,0.4-0.2,0.6-0.3
		C22,7.5,22.6,6.6,23.5,6c-0.3-0.7-1.1-1.2-1.9-1.2C20.4,4.8,19.5,5.7,19.5,6.9L19.5,6.9z"/>
</g>
<g>
	<path class="st0" d="M44.6,12.9c0-0.2-0.2-0.3-0.4-0.3c-0.3,0.1-0.8,0.2-1.4,0.2c-1.7,0-3.1-1.1-3.7-2.6h3.5c0.2,0,0.3-0.1,0.4-0.3
		L43.1,9c0.1-0.2-0.1-0.4-0.4-0.4h-4.1c0-0.4,0-0.9,0-1.3h4.5c0.2,0,0.3-0.1,0.4-0.3L43.7,6c0.1-0.2-0.1-0.4-0.4-0.4h-4.2
		c0.6-1.4,1.9-2.3,3.6-2.3c0.4,0,0.9,0.1,1.2,0.1c0.2,0,0.4-0.1,0.4-0.3l0.4-1.4c0.1-0.2-0.1-0.4-0.3-0.5c-0.4-0.1-1-0.2-1.6-0.2
		c-3,0-5.4,1.8-6.3,4.4h-1c-0.2,0-0.4,0.2-0.4,0.4v0.9c0,0.2,0.2,0.4,0.4,0.4h0.7c0,0.4,0,0.9,0,1.3h-0.7c-0.2,0-0.4,0.2-0.4,0.4
		v0.9c0,0.2,0.2,0.4,0.4,0.4h0.9c0.8,2.8,3.2,4.8,6.4,4.8c0.8,0,1.5-0.1,1.9-0.2c0.2,0,0.3-0.2,0.3-0.4L44.6,12.9z"/>
</g>
<g>
	<path class="st0" d="M62.8,2.4h-0.2V3c0,0.2-0.2,0.4-0.4,0.4H61c-0.2,0-0.4-0.2-0.4-0.4V2.4h-9.4V3c0,0.2-0.2,0.4-0.4,0.4h-1.2
		c-0.2,0-0.4-0.2-0.4-0.4V2.4h-0.2c-0.4,0-0.7,0.3-0.7,0.7v9.8c0,0.4,0.3,0.7,0.7,0.7h0.2V13c0-0.2,0.2-0.4,0.4-0.4H51
		c0.2,0,0.4,0.2,0.4,0.4v0.6h9.4V13c0-0.2,0.2-0.4,0.4-0.4h1.2c0.2,0,0.4,0.2,0.4,0.4v0.6h0.2c0.4,0,0.7-0.3,0.7-0.7V3.1
		C63.5,2.7,63.2,2.4,62.8,2.4z M51.3,11.4c0,0.2-0.2,0.4-0.4,0.4h-1.2c-0.2,0-0.4-0.2-0.4-0.4v-1.2c0-0.2,0.2-0.4,0.4-0.4H51
		c0.2,0,0.4,0.2,0.4,0.4V11.4z M51.3,8.6c0,0.2-0.2,0.4-0.4,0.4h-1.2c-0.2,0-0.4-0.2-0.4-0.4V7.4c0-0.2,0.2-0.4,0.4-0.4H51
		c0.2,0,0.4,0.2,0.4,0.4V8.6z M51.3,5.8c0,0.2-0.2,0.4-0.4,0.4h-1.2c-0.2,0-0.4-0.2-0.4-0.4V4.6c0-0.2,0.2-0.4,0.4-0.4H51
		c0.2,0,0.4,0.2,0.4,0.4V5.8z M59.3,11.9c0,0.2-0.2,0.4-0.4,0.4h-5.9c-0.2,0-0.4-0.2-0.4-0.4V9.1c0-0.2,0.2-0.4,0.4-0.4h5.9
		c0.2,0,0.4,0.2,0.4,0.4V11.9z M59.3,6.9c0,0.2-0.2,0.4-0.4,0.4h-5.9c-0.2,0-0.4-0.2-0.4-0.4V4.1c0-0.2,0.2-0.4,0.4-0.4h5.9
		c0.2,0,0.4,0.2,0.4,0.4V6.9z M62.6,11.4c0,0.2-0.2,0.4-0.4,0.4H61c-0.2,0-0.4-0.2-0.4-0.4v-1.2c0-0.2,0.2-0.4,0.4-0.4h1.2
		c0.2,0,0.4,0.2,0.4,0.4V11.4z M62.6,8.6c0,0.2-0.2,0.4-0.4,0.4H61c-0.2,0-0.4-0.2-0.4-0.4V7.4c0-0.2,0.2-0.4,0.4-0.4h1.2
		c0.2,0,0.4,0.2,0.4,0.4V8.6z M62.6,5.8c0,0.2-0.2,0.4-0.4,0.4H61c-0.2,0-0.4-0.2-0.4-0.4V4.6c0-0.2,0.2-0.4,0.4-0.4h1.2
		c0.2,0,0.4,0.2,0.4,0.4V5.8z"/>
</g>
<g>
	<path class="st0" d="M72,1c-3.9,0-7,3.1-7,7s3.1,7,7,7s7-3.1,7-7S75.9,1,72,1z M75.3,8.7l-5,2.9c-0.4,0.2-1-0.1-1-0.6V5.1
		c0-0.5,0.6-0.8,1-0.6l5,3C75.7,7.8,75.7,8.4,75.3,8.7z"/>
</g>
<g>
	<path class="st0" d="M89.2,14.5c-0.1,0.5-0.7,0.7-1.2,0.7c-0.5,0-1.1-0.1-1.2-0.7c-0.2-0.8-0.6-2.8-0.6-3.7c0-1,0.9-1.2,1.8-1.2
		s1.8,0.2,1.8,1.2C89.8,11.7,89.4,13.7,89.2,14.5L89.2,14.5z M86.1,8.9c-0.5-0.5-0.8-1.2-0.8-2c0.1-1.4,1.2-2.5,2.6-2.6
		c1.5-0.1,2.8,1.2,2.8,2.7c0,0.7-0.3,1.4-0.8,1.9c-0.1,0.1-0.1,0.2,0,0.3c0.3,0.2,0.5,0.4,0.6,0.7c0,0.1,0.2,0.1,0.3,0.1
		c0.8-0.8,1.3-1.8,1.3-3C92,4.8,90.2,3.1,88.1,3C85.9,2.9,84,4.7,84,7c0,1.2,0.5,2.2,1.3,2.9c0.1,0.1,0.2,0,0.3-0.1
		c0.1-0.3,0.3-0.5,0.6-0.7C86.2,9.1,86.2,9,86.1,8.9L86.1,8.9z M88,0.9c-3.4,0-6.2,2.8-6.2,6.2c0,2.5,1.5,4.6,3.5,5.6
		c0.1,0.1,0.3,0,0.2-0.2c-0.1-0.4-0.1-0.9-0.2-1.2c0-0.1,0-0.1-0.1-0.1c-1.3-0.9-2.2-2.4-2.2-4.1c0-2.7,2.2-4.9,4.9-4.9
		c2.7,0,4.9,2.2,4.9,4.9c0,1.7-0.9,3.2-2.2,4.1c0,0.4-0.1,0.9-0.2,1.3c0,0.1,0.1,0.2,0.2,0.2c2-1,3.5-3.1,3.5-5.6
		C94.2,3.7,91.4,0.9,88,0.9z M88,5.3c-1,0-1.8,0.8-1.8,1.8S87,8.9,88,8.9s1.8-0.8,1.8-1.8S89,5.3,88,5.3z"/>
</g>
<g>
	<path class="st0" d="M111,7v0.4c0,0.3-0.3,0.6-0.6,0.6h-0.2l-0.6,4.5c-0.1,0.6-0.6,1-1.2,1h-8.9c-0.6,0-1.1-0.4-1.2-1L97.7,8h-0.2
		C97.2,8,97,7.7,97,7.4V7c0-0.3,0.3-0.6,0.6-0.6h1.6l2.6-3.6c0.3-0.3,0.7-0.4,1.1-0.2c0.3,0.3,0.4,0.7,0.2,1.1l-1.9,2.7h5.7
		l-1.9-2.7c-0.3-0.3-0.2-0.8,0.2-1.1c0.3-0.3,0.8-0.2,1.1,0.2l2.6,3.6h1.6C110.8,6.4,111,6.7,111,7z M104.6,11.3V8.6
		c0-0.3-0.3-0.6-0.6-0.6s-0.6,0.3-0.6,0.6v2.7c0,0.3,0.3,0.6,0.6,0.6S104.6,11.7,104.6,11.3z M107.3,11.3V8.6c0-0.3-0.3-0.6-0.6-0.6
		c-0.3,0-0.6,0.3-0.6,0.6v2.7c0,0.3,0.3,0.6,0.6,0.6C107.1,11.9,107.3,11.7,107.3,11.3z M101.8,11.3V8.6c0-0.3-0.3-0.6-0.6-0.6
		c-0.3,0-0.6,0.3-0.6,0.6v2.7c0,0.3,0.3,0.6,0.6,0.6C101.6,11.9,101.8,11.7,101.8,11.3z"/>
</g>
<g>
	<path class="st0" d="M126.4,6.3c0.1-0.1,0.3,0,0.3,0.1v5.3c0,0.7-0.6,1.3-1.3,1.3h-10.9c-0.7,0-1.3-0.6-1.3-1.3V6.4
		c0-0.1,0.1-0.2,0.3-0.1c0.6,0.5,1.4,1,4,3c0.6,0.4,1.5,1.2,2.4,1.2c0.9,0,1.9-0.9,2.4-1.2C125.1,7.3,125.8,6.8,126.4,6.3z M120,9.7
		c0.6,0,1.5-0.8,1.9-1.1c3.5-2.5,3.7-2.7,4.5-3.4c0.2-0.1,0.2-0.3,0.2-0.5V4.2c0-0.7-0.6-1.3-1.3-1.3h-10.9c-0.7,0-1.3,0.6-1.3,1.3
		v0.5c0,0.2,0.1,0.4,0.2,0.5c0.8,0.6,1.1,0.8,4.5,3.4C118.5,8.9,119.4,9.7,120,9.7L120,9.7z"/>
</g>
<g>
	<polygon class="st0" points="134.2,8.8 136.6,8.8 135.5,5.6 	"/>
	<path class="st0" d="M129.4,1.4v13.2h13.2V1.4H129.4z M141.9,12.5h-2.9h-2.9v-1h0.5c0.3,0,0.5,0,0.6-0.1c0.1-0.1,0.1-0.2,0.1-0.3
		l-0.4-1.3h-3.2l-0.5,1.3c0,0.1,0,0.2,0.1,0.3c0.1,0.1,0.3,0.1,0.6,0.1h0.5v1h-2.2h-2.2v-1h0.6c0.2,0,0.3,0,0.4-0.1
		c0.1-0.1,0.2-0.2,0.3-0.4l3.2-7.5h3.3l2.9,7.5c0.1,0.3,0.2,0.4,0.2,0.4c0.1,0,0.2,0.1,0.5,0.1h0.5V12.5z"/>
</g>
</svg>
