<?xml version="1.0" encoding="utf-8"?>
<!-- Generator: Adobe Illustrator 16.0.3, SVG Export Plug-In . SVG Version: 6.00 Build 0)  -->
<!DOCTYPE svg PUBLIC "-//W3C//DTD SVG 1.1//EN" "http://www.w3.org/Graphics/SVG/1.1/DTD/svg11.dtd">
<svg version="1.1" id="Capa_1" xmlns="http://www.w3.org/2000/svg" xmlns:xlink="http://www.w3.org/1999/xlink" x="0px" y="0px"
	 width="841.889px" height="595.281px" viewBox="0 0 841.889 595.281" enable-background="new 0 0 841.889 595.281"
	 xml:space="preserve">
<g>
	<path fill="#FFFFFF" d="M364.14,182.07c-80.317,0-145.656,65.339-145.656,145.655c0,80.318,65.339,145.657,145.656,145.657
		c80.317,0,145.655-65.339,145.655-145.657C509.795,247.409,444.457,182.07,364.14,182.07z"/>
	<path fill="#FFFFFF" d="M670.03,121.38H566.566L518.013,0H210.267l-48.552,121.38h-16.059H72.827H58.25
		C26.121,121.38,0,147.501,0,179.63v356.469c0,32.347,26.314,58.663,58.662,58.663h610.955c32.348,0,58.662-26.316,58.662-58.663
		V179.63C728.28,147.501,702.158,121.38,670.03,121.38z M364.14,546.209c-120.469,0-218.484-98.013-218.484-218.484
		c0-120.469,98.015-218.483,218.484-218.483c120.471,0,218.484,98.014,218.484,218.483
		C582.624,448.197,484.611,546.209,364.14,546.209z"/>
</g>
</svg>
